<?xml version="1.0" encoding="utf-8"?>
<svg version="1.1" xmlns="http://www.w3.org/2000/svg" viewBox="0 0 1200 1200" >
  <g>
    <path
      fill="#8ED6FB"
      d="M1006.5,860.1l-389.4,220.3V908.9l242.6-133.5L1006.5,860.1z M1033.2,836V375.4l-142.4,82.3v296.1
        L1033.2,836z M193.5,860.1l389.4,220.3V908.9L340.1,775.4L193.5,860.1z M166.8,836V375.4l142.4,82.3v296.1L166.8,836z M183.5,345.5
        l399.4-225.9v165.8L327,426.2l-2,1.1L183.5,345.5z M1016.5,345.5L617.1,119.6v165.8L873,426l2,1.1L1016.5,345.5z"
    />
    <path
      fill="#1C78C0"
      d="M582.9,869.8L343.5,738.1V477.3l239.4,138.2V869.8z M617.1,869.8l239.4-131.6V477.3L617.1,615.6
        L617.1,869.8z M359.7,447.2L600,315.1l240.3,132.1L600,586L359.7,447.2z"
    />
  </g>
</svg>
